<svg id="Capa_1" data-name="Capa 1" xmlns="http://www.w3.org/2000/svg" viewBox="0 0 400 400"><defs><style>.cls-1{fill:#ff3f3f;}.cls-2{fill:#f33;}.cls-3{fill:#505050;}.cls-4{fill:#3a3a3a;}.cls-5{fill:#1a1a1a;}.cls-6{fill:#f0f0f0;}.cls-7{fill:#5e5e5e;}.cls-8{fill:#fd0404;}</style></defs><title>AutosLeo</title><path class="cls-1" d="M0,246.67l20,46.66L0,320l20,26.67L0,393.33,140,320Z"/><path class="cls-2" d="M20,346.67,140,320,20,293.33,0,320Z"/><circle class="cls-3" cx="300" cy="106.67" r="100"/><path class="cls-4" d="M377.58,43.62a99.93,99.93,0,0,1-167.73,106.1A99.94,99.94,0,1,0,377.58,43.62Z"/><circle class="cls-5" cx="300" cy="106.67" r="66.67"/><circle class="cls-6" cx="300" cy="106.67" r="33.33"/><path class="cls-7" d="M343.33,326.67h-190V313.33h190a36.67,36.67,0,1,0,0-73.33h-220a70,70,0,0,1,0-140H300v13.33H123.33a56.67,56.67,0,0,0,0,113.34h220a50,50,0,0,1,0,100Z"/><path class="cls-7" d="M151.38,131.38,142,122l15.29-15.28L142,91.38,151.38,82l24.71,24.72Z"/><path class="cls-7" d="M284.71,131.38,275.29,122l15.28-15.28L275.29,91.38,284.71,82l24.72,24.72Z"/><path class="cls-7" d="M215.29,258.05l-24.72-24.72,24.72-24.71,9.42,9.43-15.28,15.28,15.28,15.29Z"/><path class="cls-7" d="M264.71,344.71l-9.42-9.42L270.57,320l-15.28-15.29,9.42-9.42L289.43,320Z"/><path class="cls-8" d="M0,320H140L20,346.67Z"/></svg>