<svg id="Capa_1" data-name="Capa 1" xmlns="http://www.w3.org/2000/svg" viewBox="0 0 400 400"><defs><style>.cls-1{fill:#f0f0f0;}.cls-2{fill:#1a1a1a;}.cls-3{fill:#fd0404;}.cls-4{fill:#5e5e5e;}.cls-5{fill:#505050;}.cls-6{fill:#3a3a3a;}.cls-7{fill:#ff7878;}.cls-8{fill:#f33;}</style></defs><title>AutosLeo</title><path class="cls-1" d="M213.7,111.37H186.3a40,40,0,0,0-39.94,39.95v35.61a5.85,5.85,0,0,0,5.85,5.86h95.58a5.85,5.85,0,0,0,5.85-5.86V151.32A40,40,0,0,0,213.7,111.37Z"/><path class="cls-2" d="M213.7,111.37H196.12a40,40,0,0,1,39.95,39.95v35.61a5.86,5.86,0,0,1-5.86,5.86h17.58a5.85,5.85,0,0,0,5.85-5.86V151.32A40,40,0,0,0,213.7,111.37Z"/><path class="cls-3" d="M204.28,111.39h-8.56l-11.2,38.05a3.91,3.91,0,0,0,.95,3.83l11.73,12a3.91,3.91,0,0,0,5.59,0l11.74-12a3.91,3.91,0,0,0,.95-3.83Z"/><path class="cls-1" d="M200,0h0a40.53,40.53,0,0,0-40.53,40.53V60.1A40.54,40.54,0,0,0,200,100.63h0A40.53,40.53,0,0,0,240.51,60.1V40.56A40.52,40.52,0,0,0,200,0Z"/><path class="cls-4" d="M194.77.37C210.15,2.93,222,19.94,222,40.56V60.1c0,20.62-11.89,37.62-27.27,40.18A40.43,40.43,0,0,0,240.51,60.1V40.56A40.52,40.52,0,0,0,194.77.37Z"/><path class="cls-5" d="M226.35,9.8h0c-26.22-22.46-66.9-3.79-66.9,30.77V44.3A48.09,48.09,0,0,0,179,48.41a48.27,48.27,0,0,0,35.92-16,35,35,0,0,0,25.63,15.78C239.93,44.94,244,24.94,226.35,9.8Z"/><path class="cls-6" d="M226.35,9.8h0A40.84,40.84,0,0,0,194.77.37C210.12,2.93,222,19.87,222,40.43a34.87,34.87,0,0,0,18.47,7.78C239.86,44.77,244.24,25.14,226.35,9.8Z"/><path class="cls-1" d="M340.26,318.58h-27.4a40,40,0,0,0-39.94,39.94v35.62a5.86,5.86,0,0,0,5.86,5.86h95.57a5.86,5.86,0,0,0,5.86-5.86V358.52A40,40,0,0,0,340.26,318.58Z"/><path class="cls-2" d="M340.26,318.58H322.69a40,40,0,0,1,39.94,39.94v35.62a5.86,5.86,0,0,1-5.86,5.86h17.58a5.86,5.86,0,0,0,5.86-5.86V358.52A40,40,0,0,0,340.26,318.58Z"/><path class="cls-3" d="M330.84,318.6h-8.56l-11.2,38a3.92,3.92,0,0,0,1,3.83l11.73,12a3.92,3.92,0,0,0,5.59,0l11.73-12a3.91,3.91,0,0,0,1-3.83Z"/><path class="cls-1" d="M326.54,207.23h0A40.54,40.54,0,0,0,286,247.76V267.3a40.53,40.53,0,0,0,40.53,40.53h0a40.52,40.52,0,0,0,40.53-40.53V247.76A40.53,40.53,0,0,0,326.54,207.23Z"/><path class="cls-4" d="M321.33,207.58c15.39,2.56,27.28,19.57,27.28,40.18V267.3c0,20.62-11.89,37.63-27.28,40.19a40.51,40.51,0,0,0,45.75-40.19V247.76A40.53,40.53,0,0,0,321.33,207.58Z"/><path class="cls-5" d="M352.91,217h0c-26.21-22.47-66.9-3.79-66.9,30.76v3.75a48.35,48.35,0,0,0,55.43-11.88,35,35,0,0,0,25.63,15.78C366.49,252.14,370.57,232.15,352.91,217Z"/><path class="cls-6" d="M352.91,217h0a40.79,40.79,0,0,0-31.59-9.42c15.35,2.55,27.22,19.5,27.27,40.06a34.82,34.82,0,0,0,18.47,7.77C366.42,252,370.81,232.35,352.91,217Z"/><path class="cls-3" d="M292.79,205.87a5.89,5.89,0,0,1-4.68-2.31,111,111,0,0,0-22.76-22.43,5.86,5.86,0,0,1,6.93-9.45,122.7,122.7,0,0,1,25.17,24.79,5.85,5.85,0,0,1-1.13,8.21A5.78,5.78,0,0,1,292.79,205.87Z"/><path class="cls-3" d="M200,392.46a122.3,122.3,0,0,1-58.63-15A5.86,5.86,0,0,1,147,367.22a110.68,110.68,0,0,0,105.67.19,5.86,5.86,0,0,1,5.59,10.29A122.3,122.3,0,0,1,200,392.46Z"/><path class="cls-3" d="M107.38,205.66a5.86,5.86,0,0,1-4.66-9.41,123,123,0,0,1,25-24.57,5.86,5.86,0,1,1,6.94,9.45A111.25,111.25,0,0,0,112,203.35,5.84,5.84,0,0,1,107.38,205.66Z"/><path class="cls-7" d="M244.66,274.86a42.81,42.81,0,0,0,0-9.24l10.55-10.37a5.86,5.86,0,0,0,1-7.11l-8.94-15.49a5.87,5.87,0,0,0-6.64-2.72l-14.26,3.94a44.62,44.62,0,0,0-8-4.63l-3.71-14.3a5.85,5.85,0,0,0-5.67-4.39h-17.9a5.85,5.85,0,0,0-5.67,4.39l-3.71,14.3a44.62,44.62,0,0,0-8,4.63l-14.26-3.94a5.87,5.87,0,0,0-6.64,2.72l-8.94,15.49a5.86,5.86,0,0,0,1,7.11l10.55,10.37a42.81,42.81,0,0,0,0,9.24l-10.55,10.37a5.86,5.86,0,0,0-1,7.11l8.94,15.5a5.86,5.86,0,0,0,6.64,2.71l14.26-3.93a44.57,44.57,0,0,0,8,4.62l3.71,14.31a5.86,5.86,0,0,0,5.67,4.39H209a5.86,5.86,0,0,0,5.67-4.39l3.71-14.31a44.57,44.57,0,0,0,8-4.62l14.26,3.93a5.86,5.86,0,0,0,6.64-2.71l8.94-15.5a5.86,5.86,0,0,0-1-7.11Zm-44.66,16a20.65,20.65,0,1,1,20.65-20.65A20.68,20.68,0,0,1,200,290.89Z"/><path class="cls-8" d="M200,240.14a30.1,30.1,0,1,0,30.1,30.1A30.1,30.1,0,0,0,200,240.14Zm0,50.75a20.65,20.65,0,1,1,20.65-20.65A20.68,20.68,0,0,1,200,290.89Z"/><path class="cls-1" d="M87.14,318.58H59.74a40,40,0,0,0-39.95,39.94v35.62A5.86,5.86,0,0,0,25.65,400h95.57a5.86,5.86,0,0,0,5.86-5.86V358.52A40,40,0,0,0,87.14,318.58Z"/><path class="cls-2" d="M87.14,318.58H69.56a40,40,0,0,1,39.94,39.94v35.62a5.85,5.85,0,0,1-5.85,5.86h17.57a5.86,5.86,0,0,0,5.86-5.86V358.52A40,40,0,0,0,87.14,318.58Z"/><path class="cls-3" d="M77.72,318.6H69.16l-11.2,38a3.91,3.91,0,0,0,.95,3.83l11.73,12a3.92,3.92,0,0,0,5.59,0l11.73-12a3.92,3.92,0,0,0,1-3.83Z"/><path class="cls-1" d="M73.42,207.23h0a40.54,40.54,0,0,0-40.53,40.53V267.3a40.53,40.53,0,0,0,40.53,40.53h0A40.53,40.53,0,0,0,114,267.3V247.76A40.54,40.54,0,0,0,73.42,207.23Z"/><path class="cls-4" d="M68.21,207.58c15.38,2.56,27.27,19.57,27.27,40.18V267.3c0,20.62-11.89,37.63-27.27,40.19A40.5,40.5,0,0,0,114,267.3V247.76A40.52,40.52,0,0,0,68.21,207.58Z"/><path class="cls-5" d="M99.79,217h0c-26.22-22.47-66.9-3.79-66.9,30.76v3.75a48.35,48.35,0,0,0,55.43-11.88A34.94,34.94,0,0,0,114,255.41C113.37,252.14,117.45,232.15,99.79,217Z"/><path class="cls-6" d="M99.79,217h0a40.75,40.75,0,0,0-31.58-9.42c15.35,2.55,27.22,19.5,27.27,40.06A34.78,34.78,0,0,0,114,255.41C113.29,252,117.68,232.35,99.79,217Z"/></svg>