<svg id="Capa_1" data-name="Capa 1" xmlns="http://www.w3.org/2000/svg" viewBox="0 0 400 400"><defs><style>.cls-1{fill:#3a3a3a;}.cls-2{fill:#f33;}.cls-3{fill:#fd0404;}.cls-4{fill:#f0f0f0;}.cls-5{fill:#d6d6d6;}.cls-6{fill:#1a1a1a;}.cls-7{fill:#7d7d7d;}.cls-8{fill:#5e5e5e;}.cls-9{fill:#939393;}.cls-10{fill:#f55;}</style></defs><title>AutosLeo</title><path class="cls-1" d="M242.46,392a5.86,5.86,0,0,1-5.21-3.19l-32-62.44A5.86,5.86,0,0,1,215.7,321l32,62.44a5.86,5.86,0,0,1-5.21,8.53Z"/><path class="cls-1" d="M106.55,392a5.86,5.86,0,0,1-5.21-8.53l32-62.44a5.86,5.86,0,0,1,10.43,5.34l-32,62.44A5.87,5.87,0,0,1,106.55,392Z"/><path class="cls-2" d="M62.83,316.19V297.43H286.18v18.76a7.46,7.46,0,0,1-7.46,7.46H70.3A7.47,7.47,0,0,1,62.83,316.19Z"/><path class="cls-3" d="M267.24,297.43v18.76a7.47,7.47,0,0,1-7.47,7.46h19a7.46,7.46,0,0,0,7.46-7.46V297.43Z"/><path class="cls-2" d="M147.85,34.27V16.89a8.84,8.84,0,0,1,8.84-8.84h35.64a8.84,8.84,0,0,1,8.84,8.84V34.27Z"/><path class="cls-3" d="M192.33,8.05H173.25a8.84,8.84,0,0,1,8.84,8.84V34.27h19.08V16.89A8.84,8.84,0,0,0,192.33,8.05Z"/><path class="cls-4" d="M332.44,28.41H16.57A16.6,16.6,0,0,0,0,45V286.72a16.59,16.59,0,0,0,16.57,16.57H332.44A16.58,16.58,0,0,0,349,286.72V45A16.59,16.59,0,0,0,332.44,28.41Z"/><path class="cls-5" d="M332.44,28.41H312.83A16.59,16.59,0,0,1,329.4,45V286.72a16.58,16.58,0,0,1-16.57,16.57h19.61A16.58,16.58,0,0,0,349,286.72V45A16.59,16.59,0,0,0,332.44,28.41Z"/><path class="cls-1" d="M105.73,155.73a5.86,5.86,0,0,1-2.9-11l30-17a5.86,5.86,0,1,1,5.78,10.19l-30,17A5.84,5.84,0,0,1,105.73,155.73Z"/><path class="cls-1" d="M189.51,155.73a5.81,5.81,0,0,1-2.89-.76l-30-17a5.86,5.86,0,1,1,5.79-10.19l30,17a5.86,5.86,0,0,1-2.89,11Z"/><path class="cls-1" d="M209.35,151.37a5.85,5.85,0,0,1-4.76-9.27l37.86-52.91A5.86,5.86,0,0,1,252,96l-37.86,52.91A5.87,5.87,0,0,1,209.35,151.37Z"/><path class="cls-6" d="M82,214.32v47.09a2.35,2.35,0,0,0,2.35,2.34h19.08a2.35,2.35,0,0,0,2.35-2.34V214.32a2.35,2.35,0,0,0-2.35-2.35H84.3A2.35,2.35,0,0,0,82,214.32Z"/><path class="cls-6" d="M135.73,184.37v77a2.35,2.35,0,0,0,2.35,2.34h19.08a2.34,2.34,0,0,0,2.34-2.34v-77a2.34,2.34,0,0,0-2.34-2.34H138.08A2.35,2.35,0,0,0,135.73,184.37Z"/><path class="cls-6" d="M189.51,214.32v47.09a2.34,2.34,0,0,0,2.34,2.34h19.09a2.34,2.34,0,0,0,2.34-2.34V214.32a2.35,2.35,0,0,0-2.34-2.35H191.85A2.35,2.35,0,0,0,189.51,214.32Z"/><path class="cls-6" d="M243.29,161V261.41a2.34,2.34,0,0,0,2.34,2.34h19.09a2.34,2.34,0,0,0,2.34-2.34V161a2.34,2.34,0,0,0-2.34-2.34H245.63A2.34,2.34,0,0,0,243.29,161Z"/><path class="cls-7" d="M321.29,242.12l46.24,80.08a17.41,17.41,0,0,0,23.77,6.37h0a17.41,17.41,0,0,0,6.37-23.77l-46.24-80.08Z"/><path class="cls-8" d="M351.43,224.72l-30.14,17.4,18,31.21a94.51,94.51,0,0,0,30.13-17.4Z"/><circle class="cls-2" cx="308.11" cy="184.48" r="74.97"/><circle class="cls-9" cx="308.11" cy="184.48" r="52.76"/><path class="cls-2" d="M147.62,106.56a19.53,19.53,0,1,0,19.53,19.53A19.55,19.55,0,0,0,147.62,106.56Z"/><path class="cls-9" d="M93.84,137.09a19.54,19.54,0,1,0,19.53,19.54A19.56,19.56,0,0,0,93.84,137.09Z"/><path class="cls-7" d="M201.4,137.09a19.54,19.54,0,1,0,19.53,19.54A19.56,19.56,0,0,0,201.4,137.09Z"/><path class="cls-10" d="M255.17,62a19.54,19.54,0,1,0,19.54,19.53A19.56,19.56,0,0,0,255.17,62Z"/></svg>